<?xml version="1.0" encoding="utf-8"?>
<!-- Generator: Adobe Illustrator 19.2.1, SVG Export Plug-In . SVG Version: 6.00 Build 0)  -->
<svg version="1.1" id="Layer_1" xmlns="http://www.w3.org/2000/svg" xmlns:xlink="http://www.w3.org/1999/xlink" x="0px" y="0px"
	 viewBox="0 0 114.865 150" style="enable-background:new 0 0 114.865 150;" xml:space="preserve">
<style type="text/css">
	.st0{fill:#96B98A;}
	.st1{fill:#E1B98A;}
	.st2{fill:#87A77C;}
	.st3{fill:#CCA87E;}
	.st4{fill:#E9BACE;}
	.st5{fill:#FFFFFF;}
	.st6{fill:#F1F2F2;}
	.st7{fill:#CFA6B9;}
	.st8{fill:#947A7C;}
	.st9{fill:#59A7F1;}
	.st10{fill:#F0F1F1;}
	.st11{fill:#59B4FF;}
	.st12{fill:#23C7E3;}
	.st13{fill:#FFED98;}
	.st14{fill:#DBDCDD;}
	.st15{fill:#23B4D1;}
	.st16{fill:#4795F1;}
	.st17{fill:#FEDB8B;}
	.st18{fill:#2270CC;}
	.st19{fill:#FFD624;}
	.st20{fill:#FFB724;}
	.st21{fill:#14DB84;}
	.st22{fill:#14AF68;}
	.st23{fill:#58595B;}
	.st24{fill:#8AA860;}
	.st25{fill:#FF899B;}
	.st26{fill:#FF7A8E;}
	.st27{fill:#7E9B57;}
	.st28{fill:#FFB8C6;}
	.st29{fill:#845B5F;}
	.st30{fill:#0094D3;}
	.st31{fill:#F0C956;}
	.st32{fill:#F0BE45;}
	.st33{fill:#E9C956;}
	.st34{fill:#58393E;}
	.st35{fill:#2484C6;}
	.st36{fill:#8E6D6A;}
	.st37{fill:#826461;}
	.st38{fill:none;stroke:#58393E;stroke-width:4;stroke-linecap:round;stroke-linejoin:round;stroke-miterlimit:10;}
</style>
<g>
	<g>
		<path class="st36" d="M113.713,139.791c-12.693-6.004-20.895-18.951-20.895-33.057V43.802c0-24.192-19.738-43.873-44.001-43.873
			S4.816,19.61,4.816,43.802v102.606c0,1.98,1.611,3.592,3.592,3.592h102.827c1.969,0,3.58-1.602,3.591-3.568l0.039-6.096
			L113.713,139.791z"/>
		<g>
			<path class="st37" d="M114.855,141.938l0.01-1.602l-1.152-0.545c-0.542-0.256-1.064-0.542-1.589-0.824
				C112.976,140.007,113.89,140.996,114.855,141.938z"/>
			<path class="st37" d="M15.767,52.802c0-24.192,19.738-43.873,44.001-43.873c8.054,0,15.602,2.179,22.103,5.961
				C73.8,5.728,61.979-0.071,48.817-0.071c-24.263,0-44.001,19.681-44.001,43.873v102.606c0,1.98,1.611,3.592,3.592,3.592h7.359
				V52.802z"/>
		</g>
	</g>
	<g>
		<path class="st34" d="M6.816,45.802c1.104,0,2-0.896,2-2c0-21.986,17.944-39.873,40.001-39.873s40.001,17.887,40.001,39.873
			c0,1.104,0.896,2,2,2s2-0.896,2-2c0-24.192-19.738-43.873-44.001-43.873S4.816,19.61,4.816,43.802
			C4.816,44.906,5.712,45.802,6.816,45.802z"/>
		<path class="st34" d="M6.816,65c-1.104,0-2,0.896-2,2v81c0,1.104,0.896,2,2,2s2-0.896,2-2V67C8.816,65.896,7.921,65,6.816,65z"/>
		<path class="st34" d="M80.324,70.669c-7.971,8.932-19.401,14.054-31.362,14.054S25.569,79.6,17.599,70.668
			c-0.736-0.824-1.999-0.897-2.824-0.161c-0.823,0.735-0.896,2-0.16,2.824c8.729,9.782,21.247,15.391,34.347,15.391
			s25.618-5.609,34.347-15.391c0.735-0.824,0.664-2.088-0.16-2.824C82.321,69.771,81.057,69.845,80.324,70.669z"/>
		<path class="st34" d="M30.31,60.162c-0.789,0.772-0.803,2.039-0.03,2.828c2.547,2.602,6.184,4.093,9.979,4.093
			c3.131,0,6.144-1.028,8.536-2.844c2.386,1.826,5.396,2.86,8.525,2.86c3.783,0,7.407-1.493,9.944-4.096
			c0.771-0.791,0.754-2.058-0.037-2.828c-0.791-0.772-2.057-0.754-2.828,0.036c-1.788,1.835-4.368,2.888-7.079,2.888
			c-2.436,0-4.767-0.85-6.512-2.354v-1.873c2.921-0.627,5.001-2.604,5.001-5.014c0-2.929-3.073-5.224-6.997-5.224
			c-3.923,0-6.996,2.295-6.996,5.224c0,2.407,2.076,4.383,4.992,5.012v1.845c-1.755,1.509-4.097,2.368-6.55,2.368
			c-2.727,0-5.321-1.054-7.119-2.891C32.364,59.401,31.099,59.39,30.31,60.162z M45.816,53.859c0-0.305,1.062-1.224,2.996-1.224
			c1.935,0,2.997,0.919,2.997,1.224s-1.062,1.225-2.997,1.225C46.879,55.083,45.816,54.164,45.816,53.859z"/>
		<path class="st34" d="M44.166,35.664c0.814-0.745,0.872-2.01,0.127-2.826C42.644,31.035,40.284,30,37.816,30
			s-4.828,1.035-6.477,2.838c-0.745,0.815-0.688,2.081,0.127,2.826c0.816,0.747,2.082,0.687,2.826-0.127
			C35.185,34.56,36.469,34,37.816,34s2.631,0.56,3.523,1.537c0.395,0.432,0.935,0.651,1.478,0.651
			C43.298,36.188,43.782,36.015,44.166,35.664z"/>
		<path class="st34" d="M56.293,35.537C57.185,34.56,58.469,34,59.816,34s2.631,0.56,3.523,1.537
			c0.395,0.432,0.935,0.651,1.478,0.651c0.481,0,0.965-0.173,1.349-0.523c0.814-0.745,0.872-2.01,0.127-2.826
			C64.644,31.035,62.284,30,59.816,30s-4.828,1.035-6.477,2.838c-0.745,0.815-0.688,2.081,0.127,2.826
			C54.283,36.411,55.548,36.351,56.293,35.537z"/>
		<path class="st34" d="M113.713,139.791c-12.693-6.004-20.895-18.951-20.895-33.057V66c0-1.104-0.896-2-2-2s-2,0.896-2,2v40.806
			c0,15.572,9.101,29.939,23.184,36.601c0.276,0.131,0.567,0.192,0.854,0.192c0.749,0,1.468-0.423,1.809-1.145
			C115.137,141.455,114.711,140.263,113.713,139.791z"/>
		<path class="st34" d="M37.458,51.298c1.08,0.215,2.136-0.487,2.352-1.57c0.217-1.083-0.486-2.137-1.57-2.353
			c-3.094-0.617-6.278-0.93-9.465-0.93c-10.234,0-19.965,3.15-28.14,9.11c-0.893,0.651-1.088,1.902-0.438,2.794
			c0.392,0.537,1.001,0.822,1.618,0.822c0.408,0,0.821-0.125,1.177-0.384c7.485-5.458,16.4-8.343,25.782-8.343
			C31.699,50.445,34.62,50.732,37.458,51.298z"/>
		<path class="st34" d="M36.557,57.489c1.088,0.214,2.137-0.487,2.353-1.57c0.217-1.083-0.486-2.136-1.569-2.353
			c-2.2-0.438-4.464-0.661-6.729-0.661c-7.276,0-14.195,2.24-20.008,6.479c-0.893,0.651-1.088,1.902-0.438,2.794
			C10.558,62.715,11.168,63,11.785,63c0.408,0,0.821-0.125,1.177-0.384c5.123-3.736,11.227-5.711,17.65-5.711
			C32.614,56.905,34.615,57.102,36.557,57.489z"/>
		<path class="st34" d="M59.39,47.375c-1.083,0.216-1.786,1.27-1.569,2.353c0.216,1.083,1.265,1.785,2.353,1.57
			c2.836-0.566,5.758-0.853,8.683-0.853c9.382,0,18.297,2.885,25.781,8.343c0.355,0.259,0.769,0.384,1.177,0.384
			c0.617,0,1.227-0.285,1.618-0.822c0.65-0.892,0.455-2.144-0.438-2.794c-8.174-5.96-17.904-9.11-28.139-9.11
			C65.669,46.445,62.484,46.758,59.39,47.375z"/>
		<path class="st34" d="M87.025,59.384c-5.812-4.238-12.73-6.479-20.007-6.479c-2.265,0-4.529,0.223-6.729,0.661
			c-1.083,0.216-1.786,1.27-1.569,2.353c0.216,1.083,1.263,1.784,2.353,1.57c1.942-0.388,3.943-0.584,5.946-0.584
			c6.423,0,12.526,1.975,17.649,5.711C85.023,62.875,85.436,63,85.844,63c0.617,0,1.227-0.285,1.618-0.822
			C88.113,61.286,87.918,60.035,87.025,59.384z"/>
	</g>
</g>
</svg>
